<?xml version="1.0" encoding="utf-8"?>
<!-- Generator: Adobe Illustrator 15.1.0, SVG Export Plug-In . SVG Version: 6.00 Build 0)  -->
<!DOCTYPE svg PUBLIC "-//W3C//DTD SVG 1.1//EN" "http://www.w3.org/Graphics/SVG/1.1/DTD/svg11.dtd">
<svg version="1.1" id="Layer_1" xmlns="http://www.w3.org/2000/svg" xmlns:xlink="http://www.w3.org/1999/xlink" x="0px" y="0px"
	 width="114.219px" height="40px" viewBox="-0.876 0 114.219 40" enable-background="new -0.876 0 114.219 40" xml:space="preserve"
	>
<g id="Layer_1_1_">
</g>
<g id="Layer_2">
</g>
<g id="Layer_3">
</g>
<g id="Layer_4">
	<g>
		<path fill="#FFFFFF" d="M17.7,19.3c0-2.2,0.9-3.9,2.8-5.1c-1.1-1.6-2.7-2.5-4.8-2.7C15,11.4,14,11.6,12.8,12
			c-1.3,0.5-2,0.7-2.1,0.7c-0.3,0-1-0.2-1.9-0.6c-0.9-0.4-1.7-0.6-2.4-0.6c-1.1,0-2.1,0.3-3.1,0.9S1.6,13.8,1,14.9
			c-0.6,1.4-1,2.9-1,4.7c0,1.6,0.3,3.2,0.8,4.9c0.5,1.6,1.1,2.9,1.9,4.1C3.4,29.7,4,30.4,4.5,30.9C5.3,31.7,6.1,32,6.8,32
			c0.5,0,1.2-0.2,2-0.6c0.8-0.301,1.5-0.5,2.3-0.5c0.7,0,1.4,0.199,2.2,0.5c0.8,0.399,1.5,0.5,2.1,0.5c0.8,0,1.5-0.4,2.2-1.101
			c0.2-0.2,0.5-0.5,0.8-0.899c0.3-0.4,0.6-0.801,0.9-1.4c0.2-0.4,0.5-0.8,0.7-1.2c0.2-0.399,0.4-0.899,0.6-1.399
			c0.1-0.2,0.2-0.4,0.2-0.601c0.1-0.2,0.1-0.399,0.2-0.6c-0.6-0.3-1.2-0.7-1.7-1.2C18.3,22.5,17.7,21,17.7,19.3z"/>
		<polygon fill="#FFFFFF" points="36.5,24.2 36.4,24.2 31.1,11.9 27,11.9 27,31.7 30.6,31.7 30.6,18.9 30.8,18.9 35.2,29.1 
			37.7,29.1 42.1,18.9 42.3,18.9 42.3,31.7 45.9,31.7 45.9,11.9 41.8,11.9 		"/>
		<path fill="#FFFFFF" d="M14.4,9.3c0.9-1.2,1.4-2.4,1.4-3.8c0-0.1,0-0.2,0-0.3c0-0.1,0-0.2,0-0.3c-0.6,0-1.3,0.2-2,0.6
			c-0.8,0.5-1.4,1-1.9,1.6c-0.9,1.1-1.4,2.4-1.4,3.7c0,0.1,0,0.2,0,0.3s0,0.2,0,0.3C12,11.4,13.3,10.7,14.4,9.3z"/>
		<rect x="88.2" y="11.9" fill="#FFFFFF" width="4.1" height="19.8"/>
		<path fill="#FFFFFF" d="M104.5,15.1c2.4,0,3.7,1.9,3.7,3.9h3.899v-0.4c0-3.8-2.899-7-7.6-7c-5.1,0-8.1,3.4-8.1,9.2V23
			c0,5.8,3,9.1,8.1,9.1c4.9,0,7.6-3.199,7.6-6.8V24.9H108.2c0,2-1.2,3.699-3.7,3.699s-4-1.8-4-5.6v-2.2
			C100.5,16.9,102.1,15.1,104.5,15.1z"/>
		<path fill="#FFFFFF" d="M61.5,24.4c0,2.699-1.5,4.1-3.8,4.1c-2.3,0-3.8-1.4-3.8-4.1V11.9h-4V25c0,4.2,2.9,7.1,7.8,7.1
			c4.9,0,7.8-2.899,7.8-7.1V11.9h-4V24.4z"/>
		<path fill="#FFFFFF" d="M79,20.2l-2.9-0.7c-1.699-0.4-2.6-1.1-2.6-2.3c0-1.5,1.2-2.5,3.2-2.5c2.2,0,3.3,1.3,3.399,2.7H83.9
			c0-3.5-2.9-5.9-7.2-5.9c-4,0-7.2,2.2-7.2,6c0,3.4,2.2,4.9,4.9,5.5l2.899,0.7c1.9,0.5,2.9,1.1,2.9,2.399c0,1.5-1.2,2.601-3.5,2.601
			c-2.4,0-3.7-1.3-3.8-2.8H69c0.1,2.8,1.9,6.1,7.5,6.1c4.7,0,7.7-2.4,7.7-6.3C84.1,22.2,81.8,20.8,79,20.2z"/>
	</g>
</g>
</svg>
