<?xml version="1.0" encoding="utf-8"?>
<!-- Generator: Adobe Illustrator 24.3.0, SVG Export Plug-In . SVG Version: 6.00 Build 0)  -->
<svg version="1.1" id="Beatport_xAE_" xmlns="http://www.w3.org/2000/svg" xmlns:xlink="http://www.w3.org/1999/xlink" x="0px"
	 y="0px" viewBox="0 0 350 400" style="enable-background:new 0 0 350 400;" xml:space="preserve">
<style type="text/css">
	.st0{fill:#FFFFFF;}
</style>
<path class="st0" d="M324.5,277.18c0,60-47.88,108.49-108.49,108.49c-60,0-107.88-47.27-107.88-108.49
	c0-28.78,10.91-54.24,28.18-73.33l-73.33,73.33L24.5,238.7l82.73-81.82c11.21-11.21,16.97-25.76,16.97-41.82V12.33h54.24v102.73
	c0,31.52-11.21,58.18-33.03,80l-2.43,2.43c19.09-17.58,45.15-28.18,73.03-28.18C277.53,169.3,324.5,218.09,324.5,277.18
	 M275.41,277.18c0-32.12-26.67-58.18-59.4-58.18c-33.03,0-58.79,27.27-58.79,58.18c0,31.82,26.06,58.79,58.79,58.79
	C249.95,335.97,275.41,308.39,275.41,277.18"/>
</svg>
